<?xml version="1.0" encoding="utf-8"?>
<!-- Generator: Adobe Illustrator 18.1.1, SVG Export Plug-In . SVG Version: 6.00 Build 0)  -->
<svg version="1.1" id="Layer_1" xmlns="http://www.w3.org/2000/svg" xmlns:xlink="http://www.w3.org/1999/xlink" x="0px" y="0px"
	 viewBox="0 0 100 300" enable-background="new 0 0 100 300" xml:space="preserve">
<rect x="-9" y="200" opacity="0.75" fill="#239CCE" width="118" height="113.2"/>
<rect x="-9" y="-17" fill="#5E5E5E" width="118" height="117"/>
<rect x="-9" y="100" fill="#239CCE" width="118" height="100"/>
<rect y="0" fill="#666666" width="100" height="100"/>
<path fill="#FFFFFF" d="M68.4,50c6.8,0,12.3-5.5,12.3-12.3c0-6.8-5.5-12.3-12.3-12.3h-49v49h49c6.8,0,12.3-5.5,12.3-12.3
	C80.6,55.5,75.2,50,68.4,50z"/>
<rect y="100" fill="#239CCE" width="100" height="100"/>
<path fill="#FFFFFF" d="M68.4,150c6.8,0,12.3-5.5,12.3-12.3c0-6.8-5.5-12.3-12.3-12.3h-49v49h49c6.8,0,12.3-5.5,12.3-12.3
	C80.6,155.5,75.2,150,68.4,150z"/>
<path fill="#FFFFFF" d="M68.4,250c6.8,0,12.3-5.5,12.3-12.3c0-6.8-5.5-12.3-12.3-12.3h-49v49h49c6.8,0,12.3-5.5,12.3-12.3
	C80.6,255.5,75.2,250,68.4,250z"/>
<rect x="-296.3" y="33" fill="#5E5E5E" width="118" height="117"/>
<rect x="-296.3" y="150" fill="#239CCE" width="118" height="117"/>
<rect x="-287.3" y="50" fill="#666666" width="100" height="100"/>
<path fill="#FFFFFF" d="M-218.9,100c6.8,0,12.3-5.5,12.3-12.3c0-6.8-5.5-12.3-12.3-12.3h-49v49h49c6.8,0,12.3-5.5,12.3-12.3
	C-206.7,105.5-212.2,100-218.9,100z"/>
<rect x="-287.3" y="150" fill="#239CCE" width="100" height="100"/>
<path fill="#FFFFFF" d="M-218.9,200c6.8,0,12.3-5.5,12.3-12.3c0-6.8-5.5-12.3-12.3-12.3h-49v49h49c6.8,0,12.3-5.5,12.3-12.3
	C-206.7,205.5-212.2,200-218.9,200z"/>
</svg>
