<?xml version="1.0" encoding="utf-8"?>
<!-- Generator: Adobe Illustrator 18.1.1, SVG Export Plug-In . SVG Version: 6.00 Build 0)  -->
<svg version="1.1" id="Layer_1" xmlns="http://www.w3.org/2000/svg" xmlns:xlink="http://www.w3.org/1999/xlink" x="0px" y="0px"
	 viewBox="0 0 100 300" enable-background="new 0 0 100 300" xml:space="preserve">
<path fill="#666666" d="M58.1,42.8c3.4-3.4,3.4-8.8,0-12.2c-3.4-3.4-8.8-3.4-12.2,0L27.6,48.9L52,73.4L70.4,55
	c3.4-3.4,3.4-8.8,0-12.2C67,39.5,61.5,39.5,58.1,42.8z"/>
<path fill="#239CCE" d="M58.1,131.6c3.4-3.4,3.4-8.8,0-12.2c-3.4-3.4-8.8-3.4-12.2,0l-18.3,18.3L52,162.1l18.3-18.3
	c3.4-3.4,3.4-8.8,0-12.2C67,128.2,61.5,128.2,58.1,131.6z"/>
<path opacity="0.75" fill="#239CCE" d="M58.1,241.4c3.4-3.4,3.4-8.8,0-12.2c-3.4-3.4-8.8-3.4-12.2,0l-18.3,18.3L52,271.9l18.3-18.3
	c3.4-3.4,3.4-8.8,0-12.2C67,238,61.5,238,58.1,241.4z"/>
</svg>
